<mxfile host="www.draw.io" modified="2019-10-30T10:44:31.516Z" agent="Mozilla/5.0 (Windows NT 10.0; Win64; x64; rv:70.0) Gecko/20100101 Firefox/70.0" etag="r2q7jcG_YEtj5mHB8eAD" version="12.1.8" type="github" pages="1">
  <diagram name="Page-1" id="e7e014a7-5840-1c2e-5031-d8a46d1fe8dd">
    <mxGraphModel dx="2577" dy="1620" grid="1" gridSize="10" guides="1" tooltips="1" connect="1" arrows="1" fold="1" page="1" pageScale="1" pageWidth="1169" pageHeight="826" background="#ffffff" math="0" shadow="0">
      <root>
        <mxCell id="0"/>
        <mxCell id="1" parent="0"/>
        <mxCell id="4HZ55JL6iJyLQ7Zy890X-11" style="rounded=0;orthogonalLoop=1;jettySize=auto;html=1;exitX=0.5;exitY=0.5;exitDx=0;exitDy=0;exitPerimeter=0;entryX=0;entryY=0.5;entryDx=0;entryDy=0;endArrow=none;endFill=0;" parent="1" source="UCE65mSBs6iKDg8UYCPX-41" target="UCE65mSBs6iKDg8UYCPX-82" edge="1">
          <mxGeometry relative="1" as="geometry"/>
        </mxCell>
        <mxCell id="UCE65mSBs6iKDg8UYCPX-41" value="&lt;div&gt;Player&lt;/div&gt;" style="shape=umlActor;verticalLabelPosition=bottom;labelBackgroundColor=#ffffff;verticalAlign=top;html=1;outlineConnect=0;" parent="1" vertex="1">
          <mxGeometry x="-450" y="130" width="30" height="60" as="geometry"/>
        </mxCell>
        <mxCell id="UCE65mSBs6iKDg8UYCPX-79" value="Use-Cases" style="swimlane;whiteSpace=wrap" parent="1" vertex="1">
          <mxGeometry x="-360" y="-120" width="680" height="600" as="geometry"/>
        </mxCell>
        <mxCell id="4HZ55JL6iJyLQ7Zy890X-13" style="edgeStyle=none;rounded=0;orthogonalLoop=1;jettySize=auto;html=1;exitX=1;exitY=0.5;exitDx=0;exitDy=0;endArrow=none;endFill=0;" parent="UCE65mSBs6iKDg8UYCPX-79" source="UCE65mSBs6iKDg8UYCPX-82" target="4HZ55JL6iJyLQ7Zy890X-3" edge="1">
          <mxGeometry relative="1" as="geometry"/>
        </mxCell>
        <mxCell id="4HZ55JL6iJyLQ7Zy890X-14" style="edgeStyle=none;rounded=0;orthogonalLoop=1;jettySize=auto;html=1;exitX=0.5;exitY=1;exitDx=0;exitDy=0;entryX=0;entryY=0.5;entryDx=0;entryDy=0;endArrow=none;endFill=0;" parent="UCE65mSBs6iKDg8UYCPX-79" source="UCE65mSBs6iKDg8UYCPX-82" target="4HZ55JL6iJyLQ7Zy890X-4" edge="1">
          <mxGeometry relative="1" as="geometry"/>
        </mxCell>
        <mxCell id="wF-NUgudVl_50sATEeIL-2" style="rounded=0;orthogonalLoop=1;jettySize=auto;html=1;exitX=1;exitY=1;exitDx=0;exitDy=0;entryX=0;entryY=0.5;entryDx=0;entryDy=0;endArrow=none;endFill=0;" edge="1" parent="UCE65mSBs6iKDg8UYCPX-79" source="UCE65mSBs6iKDg8UYCPX-82" target="wF-NUgudVl_50sATEeIL-1">
          <mxGeometry relative="1" as="geometry"/>
        </mxCell>
        <mxCell id="UCE65mSBs6iKDg8UYCPX-82" value="start Application" style="ellipse;whiteSpace=wrap;html=1;fillColor=#33FF33;" parent="UCE65mSBs6iKDg8UYCPX-79" vertex="1">
          <mxGeometry x="40" y="240" width="120" height="80" as="geometry"/>
        </mxCell>
        <mxCell id="4HZ55JL6iJyLQ7Zy890X-12" style="edgeStyle=none;rounded=0;orthogonalLoop=1;jettySize=auto;html=1;exitX=0;exitY=0.5;exitDx=0;exitDy=0;entryX=1;entryY=0;entryDx=0;entryDy=0;endArrow=none;endFill=0;" parent="UCE65mSBs6iKDg8UYCPX-79" source="4HZ55JL6iJyLQ7Zy890X-2" target="UCE65mSBs6iKDg8UYCPX-82" edge="1">
          <mxGeometry relative="1" as="geometry"/>
        </mxCell>
        <mxCell id="4HZ55JL6iJyLQ7Zy890X-15" style="edgeStyle=none;rounded=0;orthogonalLoop=1;jettySize=auto;html=1;exitX=1;exitY=0;exitDx=0;exitDy=0;entryX=0;entryY=0.5;entryDx=0;entryDy=0;endArrow=none;endFill=0;" parent="UCE65mSBs6iKDg8UYCPX-79" source="4HZ55JL6iJyLQ7Zy890X-2" target="4HZ55JL6iJyLQ7Zy890X-5" edge="1">
          <mxGeometry relative="1" as="geometry"/>
        </mxCell>
        <mxCell id="4HZ55JL6iJyLQ7Zy890X-16" style="edgeStyle=none;rounded=0;orthogonalLoop=1;jettySize=auto;html=1;exitX=1;exitY=1;exitDx=0;exitDy=0;entryX=0;entryY=0;entryDx=0;entryDy=0;endArrow=none;endFill=0;" parent="UCE65mSBs6iKDg8UYCPX-79" source="4HZ55JL6iJyLQ7Zy890X-2" target="4HZ55JL6iJyLQ7Zy890X-6" edge="1">
          <mxGeometry relative="1" as="geometry"/>
        </mxCell>
        <mxCell id="4HZ55JL6iJyLQ7Zy890X-2" value="login Google" style="ellipse;whiteSpace=wrap;html=1;fillColor=#33FF33;" parent="UCE65mSBs6iKDg8UYCPX-79" vertex="1">
          <mxGeometry x="200" y="120" width="120" height="80" as="geometry"/>
        </mxCell>
        <mxCell id="4HZ55JL6iJyLQ7Zy890X-17" style="edgeStyle=none;rounded=0;orthogonalLoop=1;jettySize=auto;html=1;exitX=1;exitY=0.5;exitDx=0;exitDy=0;entryX=0;entryY=0.5;entryDx=0;entryDy=0;endArrow=none;endFill=0;" parent="UCE65mSBs6iKDg8UYCPX-79" source="4HZ55JL6iJyLQ7Zy890X-3" target="4HZ55JL6iJyLQ7Zy890X-6" edge="1">
          <mxGeometry relative="1" as="geometry"/>
        </mxCell>
        <mxCell id="4HZ55JL6iJyLQ7Zy890X-18" style="edgeStyle=none;rounded=0;orthogonalLoop=1;jettySize=auto;html=1;exitX=1;exitY=0;exitDx=0;exitDy=0;entryX=0;entryY=1;entryDx=0;entryDy=0;endArrow=none;endFill=0;" parent="UCE65mSBs6iKDg8UYCPX-79" source="4HZ55JL6iJyLQ7Zy890X-3" target="4HZ55JL6iJyLQ7Zy890X-5" edge="1">
          <mxGeometry relative="1" as="geometry"/>
        </mxCell>
        <mxCell id="4HZ55JL6iJyLQ7Zy890X-3" value="login Guest" style="ellipse;whiteSpace=wrap;html=1;fillColor=#33FF33;" parent="UCE65mSBs6iKDg8UYCPX-79" vertex="1">
          <mxGeometry x="200" y="240" width="120" height="80" as="geometry"/>
        </mxCell>
        <mxCell id="4HZ55JL6iJyLQ7Zy890X-4" value="stop Application" style="ellipse;whiteSpace=wrap;html=1;fillColor=#33FF33;" parent="UCE65mSBs6iKDg8UYCPX-79" vertex="1">
          <mxGeometry x="200" y="480" width="120" height="80" as="geometry"/>
        </mxCell>
        <mxCell id="4HZ55JL6iJyLQ7Zy890X-19" style="edgeStyle=none;rounded=0;orthogonalLoop=1;jettySize=auto;html=1;exitX=1;exitY=0.5;exitDx=0;exitDy=0;entryX=0;entryY=0.5;entryDx=0;entryDy=0;endArrow=none;endFill=0;" parent="UCE65mSBs6iKDg8UYCPX-79" source="4HZ55JL6iJyLQ7Zy890X-5" target="4HZ55JL6iJyLQ7Zy890X-7" edge="1">
          <mxGeometry relative="1" as="geometry"/>
        </mxCell>
        <mxCell id="4HZ55JL6iJyLQ7Zy890X-5" value="change Settings" style="ellipse;whiteSpace=wrap;html=1;fillColor=#33FF33;" parent="UCE65mSBs6iKDg8UYCPX-79" vertex="1">
          <mxGeometry x="360" y="80" width="120" height="80" as="geometry"/>
        </mxCell>
        <mxCell id="4HZ55JL6iJyLQ7Zy890X-20" style="edgeStyle=none;rounded=0;orthogonalLoop=1;jettySize=auto;html=1;exitX=1;exitY=0;exitDx=0;exitDy=0;entryX=0;entryY=0.5;entryDx=0;entryDy=0;endArrow=none;endFill=0;" parent="UCE65mSBs6iKDg8UYCPX-79" source="4HZ55JL6iJyLQ7Zy890X-6" target="4HZ55JL6iJyLQ7Zy890X-8" edge="1">
          <mxGeometry relative="1" as="geometry"/>
        </mxCell>
        <mxCell id="4HZ55JL6iJyLQ7Zy890X-21" style="edgeStyle=none;rounded=0;orthogonalLoop=1;jettySize=auto;html=1;exitX=1;exitY=0.5;exitDx=0;exitDy=0;entryX=0;entryY=0.5;entryDx=0;entryDy=0;endArrow=none;endFill=0;" parent="UCE65mSBs6iKDg8UYCPX-79" source="4HZ55JL6iJyLQ7Zy890X-6" target="4HZ55JL6iJyLQ7Zy890X-9" edge="1">
          <mxGeometry relative="1" as="geometry"/>
        </mxCell>
        <mxCell id="4HZ55JL6iJyLQ7Zy890X-22" style="edgeStyle=none;rounded=0;orthogonalLoop=1;jettySize=auto;html=1;exitX=1;exitY=1;exitDx=0;exitDy=0;entryX=0;entryY=0.5;entryDx=0;entryDy=0;endArrow=none;endFill=0;" parent="UCE65mSBs6iKDg8UYCPX-79" source="4HZ55JL6iJyLQ7Zy890X-6" target="4HZ55JL6iJyLQ7Zy890X-10" edge="1">
          <mxGeometry relative="1" as="geometry"/>
        </mxCell>
        <mxCell id="4HZ55JL6iJyLQ7Zy890X-6" value="play Game" style="ellipse;whiteSpace=wrap;html=1;fillColor=#33FF33;" parent="UCE65mSBs6iKDg8UYCPX-79" vertex="1">
          <mxGeometry x="360" y="320" width="120" height="80" as="geometry"/>
        </mxCell>
        <mxCell id="4HZ55JL6iJyLQ7Zy890X-7" value="choose Settings&lt;br&gt;to change" style="ellipse;whiteSpace=wrap;html=1;fillColor=#33FF33;" parent="UCE65mSBs6iKDg8UYCPX-79" vertex="1">
          <mxGeometry x="520" y="80" width="120" height="80" as="geometry"/>
        </mxCell>
        <mxCell id="4HZ55JL6iJyLQ7Zy890X-8" value="run Left/Right" style="ellipse;whiteSpace=wrap;html=1;fillColor=#33FF33;" parent="UCE65mSBs6iKDg8UYCPX-79" vertex="1">
          <mxGeometry x="520" y="200" width="120" height="80" as="geometry"/>
        </mxCell>
        <mxCell id="4HZ55JL6iJyLQ7Zy890X-9" value="use Jump" style="ellipse;whiteSpace=wrap;html=1;fillColor=#33FF33;" parent="UCE65mSBs6iKDg8UYCPX-79" vertex="1">
          <mxGeometry x="520" y="320" width="120" height="80" as="geometry"/>
        </mxCell>
        <mxCell id="4HZ55JL6iJyLQ7Zy890X-10" value="use Shoot" style="ellipse;whiteSpace=wrap;html=1;fillColor=#33FF33;" parent="UCE65mSBs6iKDg8UYCPX-79" vertex="1">
          <mxGeometry x="520" y="440" width="120" height="80" as="geometry"/>
        </mxCell>
        <mxCell id="wF-NUgudVl_50sATEeIL-1" value="update Application" style="ellipse;whiteSpace=wrap;html=1;fillColor=#33FF33;" vertex="1" parent="UCE65mSBs6iKDg8UYCPX-79">
          <mxGeometry x="200" y="360" width="120" height="80" as="geometry"/>
        </mxCell>
      </root>
    </mxGraphModel>
  </diagram>
</mxfile>
